<mxfile host="app.diagrams.net" modified="2023-09-01T13:37:27.804Z" agent="Mozilla/5.0 (Windows NT 10.0; Win64; x64) AppleWebKit/537.36 (KHTML, like Gecko) Chrome/116.0.0.0 Safari/537.36 Edg/116.0.1938.62" version="21.7.2" etag="Squ_Z5Y685BmmSOqYtQa" type="github">
  <diagram name="第 1 页" id="Cs8dxaaui9C384qbi_I9">
    <mxGraphModel>
      <root>
        <mxCell id="0" />
        <mxCell id="1" parent="0" />
      </root>
    </mxGraphModel>
  </diagram>
</mxfile>
